<svg xmlns="http://www.w3.org/2000/svg" width="119.601" height="103.171" viewBox="0 0 119.601 103.171">
  <g id="Group_263" data-name="Group 263" transform="translate(0 -24.915)">
    <g id="Group_262" data-name="Group 262" transform="translate(13.61 38.347)">
      <path id="Path_55" data-name="Path 55" d="M149.43,134.352a1.686,1.686,0,0,0-.766-.192,2.01,2.01,0,0,0-1.465.638l-4.079,4.079a1.912,1.912,0,0,0-.573,1.4v16.187a10.226,10.226,0,0,1-10.2,10.2H79.322a10.227,10.227,0,0,1-10.2-10.2V103.44a10.227,10.227,0,0,1,10.2-10.2H132.35a11.323,11.323,0,0,1,2.868.383,2.05,2.05,0,0,0,.572.127,2.014,2.014,0,0,0,1.467-.637l3.123-3.123a1.981,1.981,0,0,0,.573-1.847A1.932,1.932,0,0,0,139.8,86.68a17.547,17.547,0,0,0-7.457-1.594H79.322a18.387,18.387,0,0,0-18.355,18.356v53.027a18.389,18.389,0,0,0,18.356,18.356h53.027a18.393,18.393,0,0,0,18.357-18.356V136.2A1.852,1.852,0,0,0,149.43,134.352Z" transform="translate(-60.967 -85.086)" fill="#454545"/>
      <path id="Path_56" data-name="Path 56" d="M222.423,112.182l-7.012-7.011a5.08,5.08,0,0,0-7.266,0l-41.237,41.237-16.761-16.762a5.079,5.079,0,0,0-7.266,0l-7.011,7.011a5.079,5.079,0,0,0,0,7.266l27.406,27.406a5.079,5.079,0,0,0,7.266,0l51.88-51.88a5.078,5.078,0,0,0,0-7.266Z" transform="translate(-117.962 -99.499)" fill="#e3338f"/>
    </g>
    <rect id="Rectangle_35" data-name="Rectangle 35" width="14.583" height="35.149" rx="3" transform="translate(35.149 35.197) rotate(90)" fill="#e3338f"/>
    <rect id="Rectangle_36" data-name="Rectangle 36" width="14.583" height="35.149" rx="3" transform="translate(24.866 60.063) rotate(180)" fill="#e3338f"/>
  </g>
</svg>
