<svg xmlns="http://www.w3.org/2000/svg" xmlns:xlink="http://www.w3.org/1999/xlink" width="263.559" height="364.176" viewBox="0 0 263.559 364.176"><defs><style>.a{fill:none;}.b{fill:#e3338f;}.c{fill:#454545;}.d{clip-path:url(#a);}</style><clipPath id="a"><circle class="a" cx="43.399" cy="43.399" r="43.399"/></clipPath></defs><g transform="translate(1109.484 -0.905)"><rect class="b" width="56.349" height="44.101" rx="6.167" transform="translate(-953.528 187.602)"/><rect class="b" width="56.349" height="44.101" rx="6.167" transform="translate(-1058.298 187.602)"/><g transform="translate(-1053.782 231.703)"><path class="c" d="M-996.191,319.548v57.692a39.693,39.693,0,0,0,39.644,39.644A39.643,39.643,0,0,0-916.9,377.241V319.548l-10.928.077-.038,57.576a28.712,28.712,0,0,1-28.678,28.677A28.712,28.712,0,0,1-985.225,377.2V319.548Zm-36.39,0V377.2a76.031,76.031,0,0,0,76.421,75.724A76.148,76.148,0,0,0-880.4,377.163V319.548H-891.4v57.692a65.1,65.1,0,0,1-65.105,65.105,65.1,65.1,0,0,1-65.105-65.105V319.548Z" transform="translate(1032.581 -319.548)"/></g><g transform="translate(-1035.448 148.974)"><path class="c" d="M-1003.763,205.333a3.431,3.431,0,0,0-3.506,3.361v14.512a3.429,3.429,0,0,0,3.433,3.433,3.411,3.411,0,0,0,2.411-1,3.558,3.558,0,0,0,1.023-2.435V208.839A3.431,3.431,0,0,0-1003.763,205.333Z" transform="translate(1007.269 -205.331)"/></g><g transform="translate(-1020.601 162.435)"><path class="c" d="M-975.613,224.92l-10.153,10.153a3.454,3.454,0,0,0,0,4.87,3.453,3.453,0,0,0,4.87,0l10.153-10.154a3.453,3.453,0,0,0,0-4.87A3.453,3.453,0,0,0-975.613,224.92Z" transform="translate(986.771 -223.915)"/></g><g transform="translate(-1058.538 159.781)"><path class="c" d="M-1038.142,221.256a3.453,3.453,0,0,0,0,4.87l10.154,10.153a3.431,3.431,0,0,0,4.87,0,3.453,3.453,0,0,0,0-4.87l-10.153-10.153A3.454,3.454,0,0,0-1038.142,221.256Z" transform="translate(1039.147 -220.251)"/></g><g transform="translate(-927.826 148.974)"><path class="c" d="M-858.683,208.839v14.366a3.557,3.557,0,0,0,1.023,2.435,3.411,3.411,0,0,0,2.411,1,3.429,3.429,0,0,0,3.433-3.433V208.693a3.431,3.431,0,0,0-3.506-3.361A3.431,3.431,0,0,0-858.683,208.839Z" transform="translate(858.685 -205.331)"/></g><g transform="translate(-952.837 162.435)"><path class="c" d="M-892.211,224.92a3.453,3.453,0,0,0,0,4.87l10.153,10.154a3.453,3.453,0,0,0,4.87,0,3.454,3.454,0,0,0,0-4.87l-10.153-10.153A3.453,3.453,0,0,0-892.211,224.92Z" transform="translate(893.216 -223.915)"/></g><g transform="translate(-914.901 159.781)"><path class="c" d="M-829.683,221.256l-10.153,10.153a3.453,3.453,0,0,0,0,4.87,3.431,3.431,0,0,0,4.87,0l10.154-10.153a3.453,3.453,0,0,0,0-4.87A3.454,3.454,0,0,0-829.683,221.256Z" transform="translate(840.841 -220.251)"/></g><g transform="translate(-1021.058 0.905)"><circle class="b" cx="43.399" cy="43.399" r="43.399"/><path class="c" d="M-933.553,30.45A15.705,15.705,0,0,0-949.24,46.137a15.705,15.705,0,0,0,15.687,15.687,15.7,15.7,0,0,0,15.687-15.687A15.7,15.7,0,0,0-933.553,30.45Zm0,24.756a9.079,9.079,0,0,1-9.068-9.069,9.078,9.078,0,0,1,9.068-9.068,9.078,9.078,0,0,1,9.069,9.068A9.079,9.079,0,0,1-933.553,55.206Z" transform="translate(976.881 -9.05)"/><g transform="translate(0.05)"><g class="d"><path class="c" d="M-940.008,76.776h-.229c-19.384,0-32.4,12.487-32.4,27.58v2.157a12.342,12.342,0,0,0,12.328,12.329h40.367a12.816,12.816,0,0,0,12.689-12.6v-1.927C-907.25,89.128-920.076,76.776-940.008,76.776Zm25.534,29.461a5.637,5.637,0,0,1-5.465,5.379h-40.367a5.11,5.11,0,0,1-5.1-5.1v-2.156c0-11.11,9.772-20.355,25.173-20.355h.229c15.949,0,25.534,9.11,25.534,20.31Z" transform="translate(983.281 -21.821)"/></g></g></g><g transform="translate(-932.773 58.534)"><circle class="b" cx="43.399" cy="43.399" r="43.399"/><path class="c" d="M-811.665,110.013A15.705,15.705,0,0,0-827.352,125.7a15.705,15.705,0,0,0,15.687,15.687A15.7,15.7,0,0,0-795.978,125.7,15.7,15.7,0,0,0-811.665,110.013Zm0,24.756a9.078,9.078,0,0,1-9.068-9.068,9.079,9.079,0,0,1,9.068-9.069A9.079,9.079,0,0,1-802.6,125.7,9.078,9.078,0,0,1-811.665,134.769Z" transform="translate(854.993 -88.613)"/><g transform="translate(0.05)"><g class="d"><path class="c" d="M-818.12,156.338h-.229c-19.384,0-32.4,12.488-32.4,27.581v2.157A12.342,12.342,0,0,0-838.418,198.4h40.367a12.817,12.817,0,0,0,12.69-12.6v-1.927C-785.361,168.69-798.187,156.338-818.12,156.338Zm25.534,29.462a5.636,5.636,0,0,1-5.465,5.379h-40.367a5.109,5.109,0,0,1-5.1-5.1v-2.157c0-11.109,9.772-20.355,25.173-20.355h.229c15.949,0,25.534,9.111,25.534,20.31Z" transform="translate(861.393 -101.384)"/></g></g></g><g transform="translate(-1109.484 58.534)"><circle class="b" cx="43.399" cy="43.399" r="43.399"/><path class="c" d="M-1055.635,110.013a15.705,15.705,0,0,0-15.687,15.687,15.705,15.705,0,0,0,15.687,15.687,15.705,15.705,0,0,0,15.687-15.687A15.705,15.705,0,0,0-1055.635,110.013Zm0,24.756a9.078,9.078,0,0,1-9.068-9.068,9.079,9.079,0,0,1,9.068-9.069,9.08,9.08,0,0,1,9.069,9.069A9.079,9.079,0,0,1-1055.635,134.769Z" transform="translate(1098.964 -88.613)"/><g transform="translate(0.05)"><g class="d"><path class="c" d="M-1062.091,156.338h-.228c-19.385,0-32.4,12.488-32.4,27.581v2.157a12.343,12.343,0,0,0,12.329,12.329h40.367a12.816,12.816,0,0,0,12.689-12.6v-1.927C-1029.332,168.69-1042.158,156.338-1062.091,156.338Zm25.534,29.462a5.636,5.636,0,0,1-5.465,5.379h-40.367a5.109,5.109,0,0,1-5.1-5.1v-2.157c0-11.109,9.772-20.355,25.173-20.355h.228c15.949,0,25.534,9.111,25.534,20.31Z" transform="translate(1105.363 -101.384)"/></g></g></g></g></svg>