<svg xmlns="http://www.w3.org/2000/svg" width="278.443" height="364.176" viewBox="0 0 278.443 364.176"><defs><style>.a{fill:#454545;}.b{fill:#e3338f;}</style></defs><g transform="translate(505.31 0.428)"><path class="a" d="M-440.2,343.054l6.7-6.7c.2-.2.416-.4.635-.575a8.419,8.419,0,0,1,4.58-1.859c.047,0,.1,0,.143-.006.24-.019.479-.032.721-.03a8.381,8.381,0,0,1,6.015,2.642,8.642,8.642,0,0,1-.372,11.959l-6.5,6.5a8.442,8.442,0,0,1-11.925,0A8.445,8.445,0,0,1-440.2,343.054Zm17.247,34.216a8.37,8.37,0,0,1-2.47-5.961,8.378,8.378,0,0,1,2.47-5.963l13-13a8.521,8.521,0,0,1,9.587-1.656,8.4,8.4,0,0,1,4.646,8.708,8.9,8.9,0,0,1-2.511,5.081l-12.794,12.791a8.376,8.376,0,0,1-5.964,2.471A8.376,8.376,0,0,1-422.956,377.27Zm19.628,19.819a8.371,8.371,0,0,1-2.47-5.962,8.378,8.378,0,0,1,2.47-5.963l13-13a8.528,8.528,0,0,1,10.195-1.337,8.392,8.392,0,0,1,4.026,8.522,8.913,8.913,0,0,1-2.5,4.948L-391.4,397.089a8.378,8.378,0,0,1-5.963,2.47A8.38,8.38,0,0,1-403.329,397.089Zm22.357,17.283a8.442,8.442,0,0,1,0-11.925l6.7-6.7c.2-.2.415-.393.633-.573a.094.094,0,0,0,.015-.013,8.4,8.4,0,0,1,3.739-1.737l.1-.013c.235-.043.475-.077.714-.1.1-.009.193-.009.291-.015.2-.011.392-.023.591-.021a8.378,8.378,0,0,1,6.015,2.642,7.622,7.622,0,0,1,.543.64,8.7,8.7,0,0,1-.949,11.354l-6.467,6.467A8.442,8.442,0,0,1-380.971,414.372Zm-35.491-179.025,21.714,6.388-21.162,37.342a19.3,19.3,0,0,0-1.82,14.757,19.3,19.3,0,0,0,9.147,11.724q.423.24.856.458l.066.032a19.626,19.626,0,0,0,2.332.977,19.3,19.3,0,0,0,11.506.355,19.3,19.3,0,0,0,11.722-9.147l13.752-24.268,24.554,1.741,65.385,65.382a8.447,8.447,0,0,1,0,11.927,8.44,8.44,0,0,1-11.925,0,4.889,4.889,0,0,0-.375-.336l-35.35-35.722a5.5,5.5,0,0,0-7.776-.038,5.5,5.5,0,0,0-.04,7.773l35.733,36.105.013.013a8.445,8.445,0,0,1,0,11.927,8.378,8.378,0,0,1-5.963,2.47,8.373,8.373,0,0,1-5.964-2.47l-23.9-24.153a5.5,5.5,0,0,0-7.773-.041,5.5,5.5,0,0,0-.041,7.776l23.539,23.782a4.991,4.991,0,0,0,.385.43,8.445,8.445,0,0,1,0,11.927,8.448,8.448,0,0,1-11.93,0l-13.046-13.182a5.5,5.5,0,0,0-7.776-.041,5.5,5.5,0,0,0-.041,7.773l12.682,12.813a4.827,4.827,0,0,0,.387.432,8.445,8.445,0,0,1,0,11.927,8.44,8.44,0,0,1-11.925,0,12.213,12.213,0,0,0-1.247-.995c-.359-.274-.453-.464-.274-.9s.453-.843.635-1.288c.2-.5.364-1.007.522-1.521a19.829,19.829,0,0,0,.713-8.458,19.347,19.347,0,0,0-8.212-13.379,19.3,19.3,0,0,0-8.178-3.17,19.607,19.607,0,0,0-4.708-17.692A19.284,19.284,0,0,0-384.1,358.7c-.193,0-.385,0-.58,0a19.407,19.407,0,0,0-5.2-13.741,19.29,19.29,0,0,0-13.848-6.077,19.761,19.761,0,0,0-4.691.5,19.28,19.28,0,0,0-6.426-11.782,19.273,19.273,0,0,0-12.426-4.715,19.475,19.475,0,0,0-13.273,4.993l-24.9-32.86-18.84-9.3,35.873,50.015a19.452,19.452,0,0,0,.428,27.027,19.344,19.344,0,0,0,11.784,5.58,19.528,19.528,0,0,0-.227,2.971,19.3,19.3,0,0,0,5.69,13.737,19.3,19.3,0,0,0,13.739,5.692c.071,0,.139,0,.208-.006,0,.133-.009.264-.009.4a19.31,19.31,0,0,0,5.69,13.739,19.308,19.308,0,0,0,13.739,5.69,19.8,19.8,0,0,0,3.033-.238,19.33,19.33,0,0,0,5.587,11.829,19.363,19.363,0,0,0,13.738,5.681,19.37,19.37,0,0,0,13.739-5.681l2.971-2.971,1.247,1.006a19.362,19.362,0,0,0,13.51,5.457,19.363,19.363,0,0,0,13.738-5.681,19.376,19.376,0,0,0,5.679-14.043,19.387,19.387,0,0,0,14.042-5.677A19.385,19.385,0,0,0-304.4,386.2a19.319,19.319,0,0,0,14.041-5.688,19.368,19.368,0,0,0,5.679-14.042,19.381,19.381,0,0,0,14.043-5.679,19.46,19.46,0,0,0,2.554-24.321l26.067-51.675L-258,291.572l-18.137,36.245-61.337-61.335a4.885,4.885,0,0,0-.363-.334,5.506,5.506,0,0,0-3.134-1.262l-30.064-2.132a5.588,5.588,0,0,0-5.172,2.774l-15.461,27.286a8.379,8.379,0,0,1-5.089,3.97,8.378,8.378,0,0,1-6.407-.792,8.379,8.379,0,0,1-3.97-5.089,8.368,8.368,0,0,1,.791-6.406l20.64-36.426,8.364-2.406c.055-.017.109-.038.165-.055l31.215-9.014h44.711l4.357-11.036-49.857.041a5.436,5.436,0,0,0-1.512.252l-30.638,8.819-49.749-13.607Z" transform="translate(-6.084 -64.081)"/><path class="b" d="M-242.262,218.534l61.014,77.561,27.823-23.893a7.638,7.638,0,0,0,1.076-10.453l-47.757-62.032a7.637,7.637,0,0,0-10.186-1.763Z" transform="translate(-76.103 -57.043)"/><path class="b" d="M-412.514,221.135l-63.967,77.93-26.177-22.556a7.637,7.637,0,0,1-.957-10.584l50.686-62.783a7.638,7.638,0,0,1,10.09-1.616Z" transform="translate(0 -58.074)"/><path class="b" d="M-218.474,42.148V23.791A24.219,24.219,0,0,0-242.694-.428h-36.622a24.219,24.219,0,0,0-24.219,24.219v18.54A24.364,24.364,0,0,0-279.048,66.7l31.073-.157,21.983,12.134a2.439,2.439,0,0,0,3.314-3.314l-7.012-12.7A24.339,24.339,0,0,0-218.474,42.148Z" transform="translate(-58.376 0)"/><g transform="translate(-454.414 50.464)"><path class="b" d="M-433.694,113.757V95.4a24.219,24.219,0,0,1,24.219-24.219h36.622A24.219,24.219,0,0,1-348.633,95.4v18.54A24.364,24.364,0,0,1-373.121,138.3l-31.073-.158-21.983,12.134a2.439,2.439,0,0,1-3.314-3.314l7.012-12.7A24.339,24.339,0,0,1-433.694,113.757Z" transform="translate(433.694 -71.181)"/></g><path class="a" d="M-233.258,42.1h-39.848a3.393,3.393,0,0,0-3.39,3.389,3.394,3.394,0,0,0,3.39,3.39h39.848a3.393,3.393,0,0,0,3.389-3.39A3.393,3.393,0,0,0-233.258,42.1Z" transform="translate(-66.199 -12.305)"/><path class="a" d="M-273.106,32.773h39.848a3.393,3.393,0,0,0,3.389-3.39,3.393,3.393,0,0,0-3.389-3.39h-39.848a3.394,3.394,0,0,0-3.39,3.39A3.394,3.394,0,0,0-273.106,32.773Z" transform="translate(-66.199 -7.644)"/><path class="a" d="M-244.485,58.21h-28.62a3.394,3.394,0,0,0-3.39,3.39,3.393,3.393,0,0,0,3.39,3.389h28.62A3.393,3.393,0,0,0-241.1,61.6,3.394,3.394,0,0,0-244.485,58.21Zm1.832,4.111a1.96,1.96,0,0,1-.375.6,1.96,1.96,0,0,0,.375-.6,1.961,1.961,0,0,0,.136-.721,1.965,1.965,0,0,0-.136-.722,1.968,1.968,0,0,0-.375-.6,1.968,1.968,0,0,1,.375.6,1.965,1.965,0,0,1,.136.722A1.961,1.961,0,0,1-242.653,62.321Z" transform="translate(-66.199 -16.965)"/><path class="a" d="M-363.417,113.828h-39.848a3.393,3.393,0,0,0-3.389,3.39,3.393,3.393,0,0,0,3.389,3.39h39.848a3.393,3.393,0,0,0,3.389-3.39A3.393,3.393,0,0,0-363.417,113.828Z" transform="translate(-28.543 -33.056)"/><path class="a" d="M-363.417,97.72h-39.848a3.393,3.393,0,0,0-3.389,3.39,3.393,3.393,0,0,0,3.389,3.39h39.848a3.393,3.393,0,0,0,3.389-3.39A3.393,3.393,0,0,0-363.417,97.72Z" transform="translate(-28.543 -28.396)"/><path class="a" d="M-374.644,129.936h-28.62a3.394,3.394,0,0,0-3.39,3.39,3.394,3.394,0,0,0,3.39,3.39h28.62a3.394,3.394,0,0,0,3.39-3.39A3.394,3.394,0,0,0-374.644,129.936Z" transform="translate(-28.543 -37.716)"/></g></svg>