<svg xmlns="http://www.w3.org/2000/svg" width="313.045" height="364.176" viewBox="0 0 313.045 364.176"><defs><style>.a{fill:#e3338f;}.b{fill:#454545;}</style></defs><g transform="translate(-49.815 0.119)"><g transform="translate(151.044 30.657)"><circle class="a" cx="55.535" cy="55.535" r="55.535"/></g><g transform="translate(85.748 -0.119)"><path class="b" d="M296.175,25.1A85.79,85.79,0,0,0,235.162-.119h-.127a86.325,86.325,0,0,0-26.559,168.4,7.347,7.347,0,0,1,5.07,7.014v2.671h-4.71a5.824,5.824,0,1,0,0,11.647h7.8v9.537a12.036,12.036,0,0,0,12.022,12.022h.72v1.873a5.824,5.824,0,1,0,11.647,0v-1.873h.721a12.036,12.036,0,0,0,12.022-12.022v-9.537h7.8a5.824,5.824,0,1,0,0-11.647h-4.71V175.3a7.286,7.286,0,0,1,4.99-6.991A86.331,86.331,0,0,0,296.175,25.1ZM242.12,189.617v9.537a.376.376,0,0,1-.375.375H228.657a.376.376,0,0,1-.375-.375v-9.537Zm3.089-14.315v2.668H225.193V175.3a18.967,18.967,0,0,0-13.115-18.091A74.7,74.7,0,0,1,235.056,11.529h.08a74.677,74.677,0,0,1,23.118,145.7A18.9,18.9,0,0,0,245.209,175.3Z" transform="translate(-114.369 0.119)"/><path class="b" d="M153.472,16.212h0a5.824,5.824,0,0,0,8.235-8.237l-4.051-4.051a5.824,5.824,0,0,0-8.236,8.236Z" transform="translate(-114.03 -0.557)"/><path class="b" d="M380.68,226.948a5.785,5.785,0,0,0-4.117-1.706h0a5.824,5.824,0,0,0-4.118,9.942l4.051,4.051A5.824,5.824,0,0,0,384.731,231Z" transform="translate(-178.457 -64.984)"/><path class="b" d="M376.5,3.924l-4.052,4.051a5.824,5.824,0,0,0,8.237,8.236l4.051-4.051A5.824,5.824,0,1,0,376.5,3.924Z" transform="translate(-178.458 -0.557)"/><path class="b" d="M153.473,226.948,149.421,231a5.824,5.824,0,1,0,8.236,8.237l4.051-4.051a5.824,5.824,0,0,0-8.235-8.237Z" transform="translate(-114.03 -64.986)"/><path class="b" d="M427.3,116.578h-5.729a5.824,5.824,0,1,0,0,11.647H427.3a5.824,5.824,0,1,0,0-11.647Z" transform="translate(-191.46 -33.593)"/><path class="b" d="M111.9,116.578h-5.729a5.824,5.824,0,0,0,0,11.647H111.9a5.824,5.824,0,1,0,0-11.647Z" transform="translate(-100.345 -33.593)"/><path class="b" d="M279.115,131.433a5.831,5.831,0,0,0-8.236,0l-7.834,7.834-7.834-7.834a5.824,5.824,0,0,0-8.236,8.237l11.951,11.952a5.862,5.862,0,0,0,4.119,1.706,5.783,5.783,0,0,0,4.117-1.706l11.952-11.952A5.832,5.832,0,0,0,279.115,131.433Z" transform="translate(-142.212 -37.393)"/></g><path class="b" d="M125.166,422.763v11.964H141.1l.066.006a23.483,23.483,0,0,1,5.418,1.124l72.495,19.385c3.192.865,6.113,1.715,8.938,2.536,9.145,2.657,17.036,4.951,25.03,4.951,9.781,0,19.311-3.447,30.9-11.179.049-.033.1-.068.152-.1l89.439-63.69c11.091-7.913,14.339-22.174,7.554-33.172A23.832,23.832,0,0,0,360.6,343.408a27.337,27.337,0,0,0-12.457,3.081l-55.33,28.42-1,.512-.79-.8a24.718,24.718,0,0,0-17.66-7.369H235.242a14.449,14.449,0,0,1-2.857-.19l-.273-.065-.232-.157a23.606,23.606,0,0,1-2.1-1.856l-.365-.343c-16.807-15.828-32.821-23.2-50.395-23.2-10.249,0-21.392,2.514-35.07,7.912-4.766,1.88-5.043,1.941-9.871,2.161h-.07l-8.846.011v11.98l1.525-.006,7.964-.034c5.606-.256,7.189-.418,13.689-2.982,12.277-4.846,21.655-7.007,30.4-7.007,14.572,0,28.068,6.318,42.473,19.883l.359.337c4.168,3.924,6.57,5.522,13.662,5.522h38.126a12.921,12.921,0,1,1,0,25.842h-61.81a5.983,5.983,0,1,0,0,11.965h61.81a24.886,24.886,0,0,0,24.377-29.939l-.237-1.141,1.037-.533,55.073-28.289a15.583,15.583,0,0,1,7.1-1.753,11.533,11.533,0,0,1,10.2,5.5c3.433,5.566,1.577,12.934-4.319,17.141l-89.342,63.62-.02.014-.02.014c-9.68,6.443-16.694,9.07-24.211,9.07-6.357,0-12.765-1.862-21.635-4.439-2.882-.838-5.856-1.7-9.178-2.6l-72.554-19.4-.029-.008-.028-.009A34.6,34.6,0,0,0,141,422.763H125.166" transform="translate(-21.768 -98.672)"/><rect class="a" width="53.708" height="99.011" rx="9.189" transform="translate(49.815 244.528)"/></g></svg>